<svg xmlns="http://www.w3.org/2000/svg" xmlns:xlink="http://www.w3.org/1999/xlink" version="1.1" id="Layer_1" x="0px" y="0px" width="44px" height="32px" viewBox="4 4 32 20" enable-background="new 0 0 35 21" xml:space="preserve">
    <g>
        <rect fill="#F6F7F8" width="44" height="32" />
        <g>
            <path fill="#004685" d="M12.595,14.109l-0.037,0.04c-0.605,0.617-1.311,0.948-2.036,0.948c-1.516,0-2.613-1.138-2.613-2.703    c0-1.569,1.098-2.703,2.613-2.703c0.726,0,1.431,0.327,2.036,0.948l0.037,0.039L13.571,9.5l-0.027-0.03    c-0.809-0.958-1.782-1.423-2.976-1.423c-1.198,0-2.295,0.4-3.087,1.13c-0.856,0.79-1.312,1.901-1.312,3.218    c0,1.315,0.455,2.427,1.312,3.218c0.792,0.729,1.889,1.129,3.087,1.129c1.193,0,2.167-0.465,2.976-1.423l0.027-0.033    L12.595,14.109" />
            <rect x="14.554" y="8.182" fill="#004685" width="1.718" height="8.398" />
            <g>
                <path fill="#004685" d="M23.016,14.752c-0.459,0.281-0.886,0.423-1.271,0.423c-0.558,0-0.805-0.291-0.805-0.947V9.771h1.749V8.19     h-1.749V5.576l-1.688,0.904v1.71h-1.456v1.582h1.456v4.741c0,1.29,0.765,2.172,1.908,2.199c0.774,0.012,1.241-0.218,1.524-0.392     l0.016-0.008l0.417-1.619L23.016,14.752" />
            </g>
            <rect x="24.44" y="8.182" fill="#004685" width="1.721" height="8.398" />
            <path fill="#ED1B2D" d="M27.245,6.823c-1.438-2.152-4.086-3.67-6.917-3.67c-2.786,0.001-5.435,1.474-6.916,3.67h1.976    c1.35-1.391,3.101-2.147,4.94-2.148c1.808-0.001,3.587,0.757,4.939,2.148H27.245" />
            <path fill="#004685" d="M28.228,6.841c-0.344,0-0.606-0.262-0.606-0.607c0-0.343,0.263-0.605,0.606-0.605    c0.345,0,0.607,0.263,0.607,0.605C28.835,6.58,28.572,6.841,28.228,6.841 M28.228,5.727c-0.288,0-0.508,0.218-0.508,0.508    s0.22,0.51,0.508,0.51c0.29,0,0.512-0.221,0.512-0.51S28.518,5.727,28.228,5.727z M28.365,6.288l0.136,0.265h-0.132l-0.132-0.254    h-0.128v0.254h-0.113V5.892h0.293c0.117,0,0.217,0.063,0.217,0.2C28.506,6.197,28.451,6.263,28.365,6.288z M28.286,6h-0.177V6.19    h0.177c0.058,0,0.105-0.028,0.105-0.096C28.392,6.033,28.344,6,28.286,6z" />
        </g>
    </g>
</svg>