<svg xmlns="http://www.w3.org/2000/svg" width="44" height="32" viewBox="0 0 44 32" aria-labelledby="diners-logo-title" role="img">
    <title id="diners-logo-title">Diners</title>
    <g fill-rule="nonzero" fill="none">
        <rect fill="#004A98" width="44" height="32" rx="2" />
        <path d="M23.602 26.703H19.96c-5.51-.09-9.955-4.68-9.955-10.26C9.828 10.862 14.093 6.18 19.515 6H23.6C29.29 5.91 33.912 10.593 34 16.353v.09c-.178 5.67-4.71 10.26-10.398 10.26zM20.225 7.8c-4.62 0-8.442 3.872-8.442 8.552s3.82 8.55 8.442 8.55c4.62 0 8.443-3.87 8.443-8.55 0-4.68-3.822-8.55-8.443-8.55zm1.333 14.312v-11.43c3.11.81 5.066 3.96 4.266 7.11-.533 2.16-2.133 3.78-4.266 4.32zm-2.666 0c-3.11-.81-4.976-4.05-4.177-7.2.534-2.07 2.133-3.69 4.177-4.23v11.43z" fill="#FFF" />
    </g>
</svg>