<svg xmlns="http://www.w3.org/2000/svg" xmlns:xlink="http://www.w3.org/1999/xlink" width="133px" height="33px" viewBox="0 0 133 33" version="1.1">
    <!-- Generator: sketchtool 53.2 (72643) - https://sketchapp.com -->
    <title>6257B98D-78F5-4139-A9CC-C679188AB40F</title>
    <desc>Created with sketchtool.</desc>
    <g id="Symbols" stroke="none" stroke-width="1" fill="none" fill-rule="evenodd">
        <g id="logo-paypal-v2">
            <g id="logo-paypal">
                <g id="paypal_v03">
                    <path d="M2.91351073,0 L130.086489,0 C131.695577,-2.95584587e-16 133,1.30442319 133,2.91351073 L133,30.0864893 C133,31.6955768 131.695577,33 130.086489,33 L2.91351073,33 C1.30442319,33 -1.8258776e-12,31.6955768 -1.82964754e-12,30.0864893 L-1.82609483e-12,2.91351073 C-1.82629189e-12,1.30442319 1.30442319,-1.03668304e-15 2.91351073,-1.33226763e-15 Z" id="Rectangle" fill="#F7C556" />
                    <g id="PayPal-v02" transform="translate(30.000000, 7.000000)">
                        <g id="PayPal">
                            <path d="M26.9815373,3.99608667 L22.9884029,3.99608667 C22.7151485,3.99608667 22.4827654,4.19740086 22.4401424,4.47095132 L20.8251388,14.8546188 C20.7930256,15.0594856 20.9495046,15.244221 21.1544454,15.244221 L23.0608036,15.244221 C23.334058,15.244221 23.566441,15.0429068 23.6090641,14.7687642 L24.0446362,11.9681286 C24.0866754,11.693986 24.3196423,11.4926718 24.5923128,11.4926718 L25.8564064,11.4926718 C28.486772,11.4926718 30.004852,10.2018926 30.4013045,7.64401821 C30.5799708,6.52494815 30.4088949,5.64567882 29.8921638,5.02989424 C29.3246354,4.35371541 28.3180316,3.99608667 26.9815373,3.99608667 Z M27.4422162,7.78849075 C27.2238462,9.24150552 26.1290769,9.24150552 25.070508,9.24150552 L24.467947,9.24150552 L24.8906739,6.52790866 C24.9157806,6.3638968 25.0559111,6.24310829 25.2193966,6.24310829 L25.4955704,6.24310829 C26.2166585,6.24310829 26.8968751,6.24310829 27.248369,6.65994708 C27.4579808,6.90862932 27.5222073,7.27810006 27.4422162,7.78849075 Z" id="Shape" fill="#253B80" fill-rule="nonzero" />
                            <path d="M38.9177335,7.7417148 L37.0055366,7.7417148 C36.8426349,7.7417148 36.7019205,7.86250331 36.6768138,8.02651517 L36.5921517,8.56887928 L36.4584439,8.3723019 C36.0444751,7.76303042 35.1213657,7.55934783 34.2000079,7.55934783 C32.0869572,7.55934783 30.2821936,9.18229546 29.9306997,11.4589221 C29.7479462,12.594571 30.0077714,13.6804834 30.6430295,14.43778 C31.2257387,15.1340903 32.059515,15.4242195 33.0515219,15.4242195 C34.7541071,15.4242195 35.6982361,14.314031 35.6982361,14.314031 L35.61299,14.8528425 C35.5808768,15.0588935 35.7373558,15.2436289 35.9411289,15.2436289 L37.6635659,15.2436289 C37.9374041,15.2436289 38.1686194,15.0423147 38.2118263,14.7681721 L39.2452885,8.13131697 C39.2779856,7.92704228 39.1220905,7.7417148 38.9177335,7.7417148 Z M36.2523353,11.5157638 C36.0678302,12.6235839 35.2007729,13.3672622 34.09491,13.3672622 C33.539643,13.3672622 33.0958966,13.1866715 32.8109646,12.8444374 C32.5283682,12.5045717 32.4209348,12.0208255 32.5108519,11.482014 C32.6830956,10.3836675 33.5647497,9.61571307 34.6536802,9.61571307 C35.1966858,9.61571307 35.6380968,9.79867214 35.9288675,10.1438668 C36.2202221,10.492614 36.3358297,10.9793207 36.2523353,11.5157638 Z" id="Shape" fill="#253B80" fill-rule="nonzero" />
                            <path d="M49.1017151,7.7417148 L47.1801761,7.7417148 C46.9968387,7.7417148 46.824595,7.83408249 46.7206649,7.98862073 L44.0704475,11.9474051 L42.9470683,8.14315898 C42.8764192,7.90513456 42.6598008,7.7417148 42.4145725,7.7417148 L40.5263145,7.7417148 C40.2968509,7.7417148 40.1374525,7.96908142 40.2104371,8.18815862 L42.326991,14.4869244 L40.3371384,17.3355201 C40.1806593,17.5599263 40.3383061,17.8684107 40.6086411,17.8684107 L42.5278446,17.8684107 C42.7100142,17.8684107 42.8805063,17.7784114 42.9838525,17.6268336 L49.3749695,8.2716448 C49.5279453,8.04783079 49.3708824,7.7417148 49.1017151,7.7417148 Z" id="Path" fill="#253B80" />
                            <path d="M55.4636382,3.99608667 L51.46992,3.99608667 C51.1972494,3.99608667 50.9648664,4.19740086 50.9222434,4.47095132 L49.3072398,14.8546188 C49.2751266,15.0594856 49.4316056,15.244221 49.6353786,15.244221 L51.6847867,15.244221 C51.8751306,15.244221 52.0380322,15.103301 52.06781,14.9114605 L52.5261534,11.9681286 C52.5681925,11.693986 52.8011594,11.4926718 53.0738299,11.4926718 L54.3373396,11.4926718 C56.9682891,11.4926718 58.4857853,10.2018926 58.8828216,7.64401821 C59.0620718,6.52494815 58.8898281,5.64567882 58.373097,5.02989424 C57.8061525,4.35371541 56.8001326,3.99608667 55.4636382,3.99608667 Z M55.9243171,7.78849075 C55.706531,9.24150552 54.6117618,9.24150552 53.552609,9.24150552 L52.9506319,9.24150552 L53.3739427,6.52790866 C53.3990494,6.3638968 53.5380121,6.24310829 53.7020815,6.24310829 L53.9782553,6.24310829 C54.6987594,6.24310829 55.37956,6.24310829 55.7310539,6.65994708 C55.9406657,6.90862932 56.0043083,7.27810006 55.9243171,7.78849075 Z" id="Shape" fill="#179BD7" fill-rule="nonzero" />
                            <path d="M67.3992506,7.7417148 L65.4882214,7.7417148 C65.324152,7.7417148 65.1846054,7.86250331 65.1600826,8.02651517 L65.0754204,8.56887928 L64.9411287,8.3723019 C64.52716,7.76303042 63.6046344,7.55934783 62.6832766,7.55934783 C60.570226,7.55934783 58.7660462,9.18229546 58.4145523,11.4589221 C58.2323827,12.594571 58.4910402,13.6804834 59.1262983,14.43778 C59.7101752,15.1340903 60.5427837,15.4242195 61.5347907,15.4242195 C63.2373758,15.4242195 64.1815048,14.314031 64.1815048,14.314031 L64.0962588,14.8528425 C64.0641456,15.0588935 64.2206246,15.2436289 64.4255654,15.2436289 L66.1474185,15.2436289 C66.420089,15.2436289 66.652472,15.0423147 66.695095,14.7681721 L67.7291411,8.13131697 C67.7606705,7.92704228 67.6041914,7.7417148 67.3992506,7.7417148 Z M64.7338524,11.5157638 C64.5505151,12.6235839 63.68229,13.3672622 62.5764271,13.3672622 C62.0223279,13.3672622 61.5774137,13.1866715 61.2924817,12.8444374 C61.0098853,12.5045717 60.9036197,12.0208255 60.992369,11.482014 C61.1657804,10.3836675 62.0462669,9.61571307 63.1351973,9.61571307 C63.6782029,9.61571307 64.1196139,9.79867214 64.4103846,10.1438668 C64.7029069,10.492614 64.8185146,10.9793207 64.7338524,11.5157638 Z" id="Shape" fill="#179BD7" fill-rule="nonzero" />
                            <path d="M69.6535995,4.28088704 L68.0146569,14.8546188 C67.9825437,15.0594856 68.1390227,15.244221 68.3427958,15.244221 L69.9904965,15.244221 C70.2643348,15.244221 70.4967178,15.0429068 70.5387569,14.7687642 L72.1549283,4.38568884 C72.1870415,4.18082204 72.0305625,3.99549457 71.8267895,3.99549457 L69.9817383,3.99549457 C69.8188367,3.99608667 69.6787062,4.11687518 69.6535995,4.28088704 Z" id="Path" fill="#179BD7" />
                            <path d="M4.24244984,17.2620997 L4.54781748,15.2951416 L3.86760085,15.2791549 L0.619493433,15.2791549 L2.87676168,0.764993921 C2.8837682,0.72117848 2.9065394,0.680323542 2.93982039,0.651310614 C2.97310138,0.622297687 3.01572439,0.606310972 3.06009904,0.606310972 L8.53686473,0.606310972 C10.3550575,0.606310972 11.6098091,0.989992134 12.264919,1.74728875 C12.5720383,2.10254908 12.767637,2.47379613 12.8622251,2.88234552 C12.9614842,3.31102632 12.9632358,3.82319331 12.8663122,4.44785939 L12.8593057,4.49345114 L12.8593057,4.89371112 L13.166425,5.07015708 C13.4250825,5.20930071 13.6306072,5.36857576 13.7882539,5.55094274 C14.0509985,5.85469032 14.2209067,6.24073989 14.2927236,6.69843362 C14.366876,7.16915356 14.3423531,7.72928069 14.2209067,8.36342039 C14.0807763,9.09288828 13.854232,9.72821217 13.5482805,10.2480765 C13.2668518,10.7270858 12.9083514,11.1243853 12.4827051,11.4322776 C12.0763267,11.7247753 11.5934605,11.946813 11.0475356,12.0889171 C10.5185431,12.2286528 9.91539819,12.2991128 9.25386561,12.2991128 L8.82763545,12.2991128 C8.52285169,12.2991128 8.22682608,12.4104277 7.99444306,12.6099656 C7.76147616,12.8136482 7.60733265,13.0919354 7.56003861,13.3962751 L7.52792538,13.5733132 L6.98842309,17.040062 L6.96390026,17.1673636 C6.95747761,17.2076264 6.94638395,17.2277578 6.9300354,17.2413762 C6.91543847,17.2538103 6.8944189,17.2620997 6.87398321,17.2620997 L4.24244984,17.2620997 Z" id="Path" fill="#253B80" />
                            <path d="M13.4571957,4.53963498 L13.4571957,4.53963498 L13.4571957,4.53963498 C13.4408471,4.64562098 13.4221631,4.75397538 13.4011435,4.86529029 C12.6788877,8.62572093 10.2079205,9.92478956 7.05206568,9.92478956 L5.44523634,9.92478956 C5.05929368,9.92478956 4.73407423,10.2089978 4.6739349,10.5950474 L4.6739349,10.5950474 L4.6739349,10.5950474 L3.85125229,15.886058 L3.61828539,17.3858487 C3.57916564,17.6392677 3.77184503,17.8678186 4.02407987,17.8678186 L6.87398321,17.8678186 C7.21146408,17.8678186 7.49814766,17.6191363 7.55128046,17.281639 L7.57930655,17.1347981 L8.11588946,13.6816676 L8.1503382,13.4921954 C8.20288712,13.1535139 8.49015458,12.9048317 8.82763545,12.9048317 L9.25386561,12.9048317 C12.0150197,12.9048317 14.1765321,11.7679986 14.8082869,8.4782879 C15.0721993,7.1040225 14.9355721,5.95653162 14.2372553,5.14949856 C14.0258918,4.90614523 13.7637311,4.70423894 13.4571957,4.53963498 Z" id="Path" fill="#179BD7" />
                            <path d="M12.7016589,4.23411109 C12.5913062,4.20154556 12.4774502,4.17194053 12.3606748,4.14529601 C12.2433155,4.11924358 12.1230369,4.09615166 11.999255,4.07602024 C11.5660183,4.00496818 11.0913263,3.97121845 10.5827695,3.97121845 L6.29010627,3.97121845 C6.18442454,3.97121845 6.08399771,3.99549457 5.99408066,4.03931001 C5.79614638,4.1358224 5.64900939,4.32588668 5.6133929,4.5585822 L4.70020936,10.4239303 L4.6739349,10.5950474 C4.73407423,10.2089978 5.05929368,9.92478956 5.44523634,9.92478956 L7.05206568,9.92478956 C10.2079205,9.92478956 12.6788877,8.62512883 13.4011435,4.86529029 C13.422747,4.75397538 13.4408471,4.64562098 13.4571957,4.53963498 C13.2744422,4.44134629 13.0765079,4.35726801 12.8633929,4.28562384 C12.8108439,4.26786082 12.7565434,4.25068991 12.7016589,4.23411109 Z" id="Path" fill="#222D65" />
                            <path d="M5.6133929,4.5585822 C5.64900939,4.32588668 5.79614638,4.1358224 5.99408066,4.03990211 C6.08458159,3.99608667 6.18442454,3.97181055 6.29010627,3.97181055 L10.5827695,3.97181055 C11.0913263,3.97181055 11.5660183,4.00556028 11.999255,4.07661234 C12.1230369,4.09674376 12.2433155,4.11983569 12.3606748,4.14588811 C12.4774502,4.17253264 12.5913062,4.20213766 12.7016589,4.23470319 C12.7565434,4.25128201 12.8108439,4.26845293 12.8639767,4.28562384 C13.0770918,4.35726801 13.2750261,4.44193839 13.4577796,4.53963498 C13.6726463,3.14997497 13.4560279,2.20379828 12.7150881,1.34702877 C11.8982443,0.403812581 10.423955,0 8.53744861,0 L3.06068292,0 C2.67532414,0 2.34660142,0.284208268 2.28704597,0.670849933 L0.0058387694,15.3342203 C-0.0391197549,15.6243495 0.181585728,15.886058 0.470020936,15.886058 L3.85125229,15.886058 L4.70020936,10.4239303 L5.6133929,4.5585822 Z" id="Path" fill="#253B80" />
                        </g>
                    </g>
                </g>
            </g>
        </g>
    </g>
</svg>